<?xml version="1.0" standalone="no"?>
<!DOCTYPE svg PUBLIC "-//W3C//DTD SVG 20010904//EN"
 "http://www.w3.org/TR/2001/REC-SVG-20010904/DTD/svg10.dtd">
<svg version="1.0" xmlns="http://www.w3.org/2000/svg"
 width="626.000000pt" height="417.000000pt" viewBox="0 0 626.000000 417.000000"
 preserveAspectRatio="xMidYMid meet">

<g transform="translate(0.000000,417.000000) scale(0.100000,-0.100000)"
fill="#000000" stroke="none">
<path d="M1807 3713 c-4 -3 -7 -163 -7 -355 l0 -348 -99 0 c-68 0 -102 -4
-109 -13 -7 -8 -12 -88 -13 -215 l-1 -202 -27 0 c-138 2 -623 -10 -631 -15
-15 -10 -14 -877 2 -893 9 -9 97 -12 335 -12 l323 0 0 -218 c0 -156 3 -221 12
-230 8 -8 55 -12 145 -12 l133 0 0 -45 0 -45 -187 -2 -188 -3 -3 -47 c-2 -26
2 -57 8 -69 l12 -21 26 25 c39 38 98 60 122 47 20 -11 34 -45 28 -71 -3 -12
58 -13 434 -10 399 4 438 2 444 -13 5 -14 29 -16 200 -16 l194 0 0 -75 0 -75
-195 0 c-121 0 -195 -4 -195 -10 0 -6 201 -11 560 -12 l560 -3 0 96 0 96 113
6 c61 4 298 7 524 7 l413 0 15 24 c11 16 15 41 13 72 l-3 48 -187 -3 -188 -3
0 51 0 51 133 0 c90 0 137 4 145 12 9 9 12 112 12 400 0 361 1 389 18 394 9 3
41 15 70 26 29 11 54 19 56 17 2 -2 -14 -109 -35 -238 -34 -198 -37 -235 -26
-245 10 -8 30 -139 67 -458 l53 -448 -23 -20 c-13 -12 -30 -18 -38 -15 -9 3
-37 -2 -64 -11 -35 -11 -48 -21 -48 -35 0 -19 -34 -19 -1925 -19 -1912 0
-1925 0 -1945 -20 -25 -25 -26 -52 -2 -73 17 -16 191 -17 2294 -17 2191 0
2276 1 2291 18 22 25 21 48 -3 72 -16 16 -33 20 -86 20 -60 0 -65 2 -62 21 2
17 -7 23 -49 38 -29 10 -53 14 -53 9 0 -14 -16 -9 -40 12 -26 23 -28 -9 35
510 20 162 39 324 42 358 4 40 11 66 20 69 8 3 13 22 13 53 0 58 -7 80 -26 80
-10 0 -14 12 -14 40 0 22 5 40 10 40 6 0 10 7 10 15 0 26 20 16 34 -16 l13
-30 50 39 c61 49 122 119 129 149 4 13 4 33 0 45 -8 34 -92 131 -179 208 -68
59 -85 69 -128 75 -28 4 -54 3 -59 -1 -4 -5 -15 -49 -25 -97 -19 -91 -35 -100
-35 -19 0 63 -18 51 -26 -18 -3 -33 -10 -58 -14 -55 -4 2 -11 41 -14 86 -10
107 -11 109 -58 109 -46 0 -60 -7 -149 -72 -37 -26 -70 -48 -73 -48 -3 0 -6
185 -6 411 1 296 -3 415 -11 425 -9 11 -56 14 -230 14 l-219 0 0 30 0 30 -60
0 c-47 0 -60 3 -60 15 0 11 -12 15 -50 15 -49 0 -50 1 -50 30 l0 30 -65 0 -65
0 0 -30 c0 -29 -1 -30 -50 -30 -38 0 -50 -4 -50 -15 0 -12 -13 -15 -55 -15
-54 0 -55 0 -55 -30 l0 -30 -510 0 -510 0 -2 353 -3 352 -411 3 c-226 1 -413
-1 -417 -5z m53 -48 c0 -8 -7 -15 -15 -15 -8 0 -15 7 -15 15 0 8 7 15 15 15 8
0 15 -7 15 -15z m60 0 c0 -8 -6 -15 -14 -15 -17 0 -28 14 -19 24 12 12 33 6
33 -9z m51 0 c-1 -15 -24 -12 -29 3 -3 9 2 13 12 10 10 -1 17 -7 17 -13z m634
-510 l0 -460 -387 -3 -388 -2 0 465 0 465 388 -2 387 -3 0 -460z m1483 -107
l3 -38 -150 0 -151 0 0 40 0 41 148 -3 147 -3 3 -37z m-312 -33 c-5 -13 17
-15 159 -15 140 0 165 2 165 15 0 11 11 15 40 15 l40 0 0 -290 0 -290 -240 0
-240 0 0 290 0 290 41 0 c32 0 40 -3 35 -15z m-1974 -212 l3 -138 415 0 415 0
3 138 3 137 509 0 510 0 0 -265 0 -265 275 0 275 0 0 265 0 265 198 -2 197 -3
2 -360 3 -360 -25 28 c-24 27 -26 27 -55 12 -16 -8 -30 -23 -30 -31 0 -24 57
-139 85 -173 l25 -29 -2 -334 -3 -333 -932 -3 -933 -2 0 -75 0 -75 601 0 600
0 -3 -47 -3 -48 -162 4 -162 4 -34 -37 -34 -36 -412 0 -413 0 -29 30 -30 30
-167 2 c-164 3 -167 3 -170 25 -3 22 -6 23 -165 25 l-162 3 -3 97 -3 98 -167
2 -167 3 -3 153 -3 152 335 0 c270 0 336 3 345 14 8 9 10 136 9 452 l-3 439
-340 5 c-187 3 -341 7 -342 8 -6 5 -2 349 4 355 3 4 37 7 74 7 l68 0 3 -137z
m-828 -272 c3 -5 -1 -14 -8 -20 -16 -13 -32 2 -21 19 8 12 22 13 29 1z m54 -8
c-4 -22 -22 -20 -26 1 -2 10 3 16 13 16 10 0 15 -7 13 -17z m58 6 c10 -17 -13
-36 -27 -22 -12 12 -4 33 11 33 5 0 12 -5 16 -11z m1219 -444 l0 -390 -660 -3
c-363 -1 -670 0 -682 3 l-23 5 0 384 c0 210 3 386 7 389 3 4 311 6 682 5 l676
-3 0 -390z m2974 -97 c35 -30 36 -28 -18 -103 l-36 -50 -7 55 c-3 30 -6 77 -7
103 -1 54 -2 54 68 -5z m-260 -900 c10 -243 16 -462 13 -486 -4 -40 -6 -42
-37 -42 -31 0 -33 2 -38 42 -2 24 4 243 14 488 21 518 18 455 25 448 3 -4 13
-206 23 -450z m-1770 208 c9 -11 10 -20 1 -35 -10 -19 -20 -21 -120 -21 -100
0 -110 2 -120 21 -22 39 2 49 120 49 81 0 110 -4 119 -14z m344 -353 c-7 -2
-19 -2 -25 0 -7 3 -2 5 12 5 14 0 19 -2 13 -5z"/>
<path d="M1958 3525 c-36 -20 -54 -76 -38 -116 17 -39 46 -59 90 -59 69 0 112
59 90 125 -19 58 -85 81 -142 50z m82 -45 c0 -10 -8 -24 -17 -29 -16 -9 -14
-10 9 -11 18 0 29 -7 33 -21 10 -31 -6 -41 -61 -37 -36 2 -50 7 -52 19 -4 21
26 51 41 42 7 -3 3 3 -7 15 -18 21 -18 23 -1 42 13 15 22 17 36 9 11 -5 19
-18 19 -29z"/>
<path d="M2150 3490 c0 -6 70 -10 190 -10 120 0 190 4 190 10 0 6 -70 10 -190
10 -120 0 -190 -4 -190 -10z"/>
<path d="M2243 3443 c53 -2 141 -2 195 0 53 1 9 3 -98 3 -107 0 -151 -2 -97
-3z"/>
<path d="M2198 3393 c29 -2 74 -2 100 0 26 2 2 3 -53 3 -55 0 -76 -1 -47 -3z"/>
<path d="M1998 2983 c6 -2 18 -2 25 0 6 3 1 5 -13 5 -14 0 -19 -2 -12 -5z"/>
<path d="M2160 2943 c0 -5 55 -7 122 -5 224 4 245 8 61 10 -101 1 -183 -1
-183 -5z"/>
<path d="M1965 2900 c-3 -5 -1 -10 4 -10 6 0 11 5 11 10 0 6 -2 10 -4 10 -3 0
-8 -4 -11 -10z"/>
<path d="M2203 2843 c26 -2 68 -2 95 0 26 2 4 3 -48 3 -52 0 -74 -1 -47 -3z"/>
<path d="M1946 2818 c3 -5 10 -6 15 -3 13 9 11 12 -6 12 -8 0 -12 -4 -9 -9z"/>
<path d="M3794 2906 c-8 -22 3 -33 18 -18 9 9 9 15 0 24 -9 9 -13 7 -18 -6z"/>
<path d="M3938 2893 c34 -2 90 -2 125 0 34 2 6 3 -63 3 -69 0 -97 -1 -62 -3z"/>
<path d="M3776 2863 c-14 -15 -3 -23 30 -23 24 0 34 4 32 12 -5 13 -52 21 -62
11z"/>
<path d="M3908 2853 c17 -2 47 -2 65 0 17 2 3 4 -33 4 -36 0 -50 -2 -32 -4z"/>
<path d="M3880 2661 c0 -5 54 -8 120 -8 66 1 120 5 120 9 0 4 -54 8 -120 8
-66 0 -120 -4 -120 -9z"/>
<path d="M3880 2579 c0 -5 53 -9 120 -9 67 0 120 4 120 9 0 6 -53 10 -120 10
-67 0 -120 -4 -120 -10z"/>
<path d="M3026 2811 c-89 -36 -130 -94 -141 -202 -5 -44 -15 -76 -34 -104 -22
-34 -26 -51 -26 -111 0 -69 -2 -74 -48 -142 -36 -51 -48 -77 -45 -98 l3 -28
78 68 c43 38 80 67 82 65 2 -2 -1 -62 -6 -134 -23 -330 -25 -405 -10 -405 10
0 12 -9 7 -37 -3 -21 -6 -46 -6 -56 0 -10 -11 -22 -25 -27 -33 -13 -32 -43 3
-60 122 -57 294 -76 410 -46 84 21 162 56 162 71 0 7 -7 28 -15 47 -8 22 -18
104 -25 214 -6 98 -15 235 -19 304 -5 69 -8 127 -5 129 2 2 34 -24 73 -58 38
-33 71 -61 75 -61 18 0 0 47 -44 112 -48 71 -50 75 -49 143 1 53 -4 79 -19
105 -11 19 -23 64 -27 99 -7 71 -24 111 -64 154 -64 70 -191 96 -285 58z m214
-174 c0 -8 11 -24 24 -36 20 -19 23 -30 19 -60 -10 -71 -34 -140 -59 -170
l-26 -31 8 -280 7 -280 -83 0 -83 0 7 279 8 278 -31 44 c-17 24 -36 69 -43
100 -10 49 -9 60 5 82 19 29 70 47 132 47 22 0 53 9 70 19 36 24 45 25 45 8z"/>
<path d="M3068 2583 c-30 -8 -20 -20 12 -15 16 2 27 8 24 13 -5 9 -8 10 -36 2z"/>
<path d="M3200 2582 c0 -5 14 -12 30 -14 33 -5 28 6 -7 17 -13 3 -23 2 -23 -3z"/>
<path d="M3073 2525 c0 -15 5 -25 14 -25 9 0 13 8 11 22 -4 31 -25 34 -25 3z"/>
<path d="M3217 2543 c-10 -9 -8 -43 2 -43 5 0 11 11 13 25 5 24 -2 32 -15 18z"/>
<path d="M3120 2050 c0 -5 5 -10 10 -10 6 0 10 5 10 10 0 6 -4 10 -10 10 -5 0
-10 -4 -10 -10z"/>
<path d="M3120 1980 c0 -5 5 -10 10 -10 6 0 10 5 10 10 0 6 -4 10 -10 10 -5 0
-10 -4 -10 -10z"/>
<path d="M3749 1667 c-37 -28 -50 -88 -28 -129 6 -11 26 -26 46 -34 94 -40
173 67 107 145 -21 26 -33 31 -67 31 -23 0 -49 -6 -58 -13z m46 -57 c0 -20 6
-26 30 -30 33 -6 41 -33 12 -38 -31 -6 -96 65 -82 89 12 19 40 5 40 -21z"/>
<path d="M4029 1667 c-37 -28 -50 -88 -28 -129 13 -24 71 -50 96 -42 59 19 83
48 83 100 0 40 -51 84 -97 84 -21 0 -45 -6 -54 -13z m90 -53 c25 -5 31 -11 29
-27 -3 -18 -12 -21 -60 -25 l-58 -4 0 31 c0 27 3 31 29 31 16 0 43 -3 60 -6z"/>
<path d="M4295 1654 c-29 -31 -33 -87 -10 -121 20 -28 75 -46 106 -34 67 25
87 113 36 157 -40 34 -100 33 -132 -2z m83 -32 c2 -12 8 -20 13 -17 15 10 10
-21 -5 -35 -8 -6 -12 -18 -9 -26 3 -9 -1 -14 -12 -14 -10 0 -15 5 -12 14 3 7
-3 20 -14 29 -20 18 -25 37 -10 37 5 0 11 9 14 21 7 26 31 20 35 -9z"/>
<path d="M1104 2361 c-31 -19 -64 -74 -64 -108 0 -10 9 -36 19 -59 38 -83 146
-98 208 -30 18 20 33 44 33 53 -1 11 -7 5 -15 -14 -31 -72 -135 -95 -191 -42
-35 33 -50 90 -34 129 46 112 197 105 231 -11 7 -21 14 -37 17 -34 3 2 -3 25
-13 51 -30 78 -119 109 -191 65z"/>
<path d="M1161 2310 c-19 -11 -9 -45 14 -45 13 0 21 8 23 21 3 23 -17 37 -37
24z"/>
<path d="M1360 2300 c0 -6 70 -10 190 -10 120 0 190 4 190 10 0 6 -70 10 -190
10 -120 0 -190 -4 -190 -10z"/>
<path d="M1820 2300 c0 -6 70 -10 190 -10 120 0 190 4 190 10 0 6 -70 10 -190
10 -120 0 -190 -4 -190 -10z"/>
<path d="M1360 2250 c0 -6 70 -10 190 -10 120 0 190 4 190 10 0 6 -70 10 -190
10 -120 0 -190 -4 -190 -10z"/>
<path d="M1820 2250 c0 -6 70 -10 190 -10 120 0 190 4 190 10 0 6 -70 10 -190
10 -120 0 -190 -4 -190 -10z"/>
<path d="M1135 2237 c-8 -4 -15 -15 -15 -22 0 -11 13 -15 50 -15 43 0 50 3 50
20 0 11 -3 20 -7 21 -43 4 -66 3 -78 -4z"/>
<path d="M1360 2200 c0 -6 36 -10 89 -10 50 0 93 5 96 10 4 6 -28 10 -89 10
-57 0 -96 -4 -96 -10z"/>
<path d="M1825 2200 c4 -6 78 -10 191 -10 116 0 184 4 184 10 0 6 -70 10 -191
10 -124 0 -188 -3 -184 -10z"/>
<path d="M2127 2003 c-9 -2 -14 -9 -11 -15 4 -5 -15 -32 -42 -59 l-48 -49 -23
22 -24 22 -57 -59 -57 -60 57 55 58 54 23 -22 23 -22 49 50 c27 28 55 48 62
45 7 -2 13 0 13 4 0 5 3 16 6 25 6 16 3 17 -29 9z"/>
<path d="M1625 1857 l-70 -72 70 67 70 68 32 -31 c30 -30 32 -31 54 -15 13 9
19 16 13 16 -5 0 -15 -5 -22 -12 -9 -9 -19 -5 -45 20 l-33 32 -69 -73z"/>
<path d="M2923 3533 c-7 -2 -13 -11 -13 -18 0 -17 -29 -34 -54 -32 -27 3 -44
-28 -28 -53 14 -24 16 -60 2 -60 -15 0 -12 -36 5 -50 8 -6 18 -9 24 -6 16 10
42 -5 52 -30 6 -17 16 -24 34 -24 18 0 28 7 34 24 10 25 36 40 52 30 6 -3 16
0 24 6 17 14 20 50 5 50 -14 0 -12 36 2 60 16 25 -1 56 -28 53 -25 -2 -54 15
-54 31 0 20 -30 30 -57 19z m48 -93 c29 -16 26 -67 -5 -81 -34 -16 -66 3 -66
41 0 41 33 60 71 40z"/>
<path d="M4805 3385 c-33 -32 -33 -78 1 -111 21 -22 32 -25 67 -21 35 3 47 0
70 -21 19 -18 30 -23 38 -15 7 7 1 18 -21 36 -27 23 -29 29 -20 48 41 76 -73
147 -135 84z m96 -16 c27 -27 22 -69 -12 -88 -24 -13 -29 -13 -53 2 -34 22
-36 69 -4 91 30 21 44 20 69 -5z"/>
<path d="M4817 3053 c-4 -3 -7 -66 -7 -140 l0 -133 140 0 140 0 -7 -32 -6 -32
40 32 41 32 131 0 132 0 -3 138 -3 137 -296 3 c-162 1 -298 -1 -302 -5z m338
-73 c0 -13 -23 -15 -145 -15 -131 0 -145 2 -148 18 -3 16 7 17 145 15 124 -3
148 -5 148 -18z m225 -60 c0 -19 -7 -20 -260 -20 -253 0 -260 1 -260 20 0 19
7 20 260 20 253 0 260 -1 260 -20z m-2 -62 c3 -17 -14 -18 -257 -18 -211 0
-261 3 -261 13 0 8 3 17 7 21 4 3 119 5 257 4 230 -3 251 -4 254 -20z"/>
<path d="M4920 2631 c-35 -34 -45 -69 -34 -119 7 -34 8 -35 13 -12 3 14 11 33
17 44 11 18 12 18 40 -2 16 -11 45 -23 65 -26 21 -4 48 -15 62 -26 23 -18 27
-19 57 -4 29 15 32 20 27 51 -4 19 -13 46 -22 60 -23 34 -90 63 -148 63 -40 0
-53 -5 -77 -29z"/>
<path d="M5381 2504 c0 -11 3 -14 6 -6 3 7 2 16 -1 19 -3 4 -6 -2 -5 -13z"/>
<path d="M5320 2500 c0 -5 5 -10 11 -10 5 0 7 5 4 10 -3 6 -8 10 -11 10 -2 0
-4 -4 -4 -10z"/>
<path d="M4938 2493 c7 -3 16 -2 19 1 4 3 -2 6 -13 5 -11 0 -14 -3 -6 -6z"/>
<path d="M5028 2493 c7 -3 16 -2 19 1 4 3 -2 6 -13 5 -11 0 -14 -3 -6 -6z"/>
<path d="M4941 2464 c0 -11 3 -14 6 -6 3 7 2 16 -1 19 -3 4 -6 -2 -5 -13z"/>
<path d="M5030 2466 c0 -9 5 -16 10 -16 6 0 10 4 10 9 0 6 -4 13 -10 16 -5 3
-10 -1 -10 -9z"/>
<path d="M5318 2463 c6 -2 18 -2 25 0 6 3 1 5 -13 5 -14 0 -19 -2 -12 -5z"/>
<path d="M5398 2463 c12 -2 30 -2 40 0 9 3 -1 5 -23 4 -22 0 -30 -2 -17 -4z"/>
<path d="M5478 2463 c6 -2 18 -2 25 0 6 3 1 5 -13 5 -14 0 -19 -2 -12 -5z"/>
<path d="M5100 2405 c-8 -9 -8 -15 -2 -15 12 0 26 19 19 26 -2 2 -10 -2 -17
-11z"/>
<path d="M5381 2384 c0 -11 3 -14 6 -6 3 7 2 16 -1 19 -3 4 -6 -2 -5 -13z"/>
<path d="M5000 2220 c0 -5 7 -10 16 -10 8 0 12 5 9 10 -3 6 -10 10 -16 10 -5
0 -9 -4 -9 -10z"/>
<path d="M3697 743 c-3 -5 25 -7 61 -5 116 5 130 9 35 10 -50 1 -94 -1 -96 -5z"/>
<path d="M4000 739 c78 -11 420 -9 420 2 0 5 -99 8 -237 8 -159 -1 -220 -4
-183 -10z"/>
<path d="M3383 645 c0 -44 2 -61 4 -37 2 23 2 59 0 80 -2 20 -4 1 -4 -43z"/>
</g>
</svg>
